<?xml version="1.0" encoding="utf-8"?>
<!-- Generator: Adobe Illustrator 16.0.0, SVG Export Plug-In . SVG Version: 6.00 Build 0)  -->
<!DOCTYPE svg PUBLIC "-//W3C//DTD SVG 1.1//EN" "http://www.w3.org/Graphics/SVG/1.1/DTD/svg11.dtd">
<svg version="1.1" xmlns="http://www.w3.org/2000/svg" xmlns:xlink="http://www.w3.org/1999/xlink" x="0px" y="0px" width="269px"
	 height="681px" viewBox="0 0 269 681" enable-background="new 0 0 269 681" xml:space="preserve">
<g id="Layer_1">
	<path fill="none" stroke="#000000" stroke-width="2" stroke-linecap="round" stroke-linejoin="round" stroke-miterlimit="10" d="
		M208.109,12.362c0,0-2.684,31.858-22.469,46.949"/>
	<g>
		
			<path fill="#E4B383" stroke="#000000" stroke-width="2" stroke-linecap="round" stroke-linejoin="round" stroke-miterlimit="10" d="
			M154.37,164.132c0,0,7.861,1.119,10.815-5.223c13.581-25.905,0-32.933,0-32.933c-16.097-3.507-20.121,26.645-21.379,21.508
			s-16.348-25.296-16.348-25.296l-13.482-36.38c-28.76,7.136-23.822,5.869-23.238,34.864c0,0-0.361,13.84,6.539,25.661
			c2.176,3.728,2.853,7.026,1.174,8.544c-3.005,2.718-4.024,2.683-1.677,7.378c0,0,0.436,1.662-0.765,4.235
			c-0.785,1.679-3.119,5.426-1.06,9.749c0.221,0.463,0.344,2.48,0.229,3.022c-0.346,1.622,0.005,3.26,0.7,4.831
			c1.704,3.847,5.219,2.843,6.262,3.314c1.875,0.847-1.006,4.023,8.048,8.719s14.419,3.353,23.474,0s13.079-1.006,13.079,7.378
			s-0.336,5.366-2.683,5.366c-2.348,0-10.731,8.048-13.079,12.407c0,0,1.749,5.791,29.175-4.521
			c8.696-3.27,19.295-7.603,19.295-7.603s0.452-8.215-0.245-14.269c-0.646-5.61-4.372-15.605,10.426-29.025
			c0.612-0.555,1.287-1.133,1.998-1.728c-11.62,0.026-26.443-5.223-26.443-5.223C162.231,165.251,154.37,164.132,154.37,164.132z"/>
		
			<path fill="#858683" stroke="#000000" stroke-width="2" stroke-linecap="round" stroke-linejoin="round" stroke-miterlimit="10" d="
			M223.535,111.311c0,0-7.797-54.766-74.698-34.896c-15.147,4.499-26.443,7.305-34.86,9.395l13.482,36.38
			c0,0,15.09,20.159,16.348,25.296s5.282-25.015,21.379-21.508c0,0,13.581,7.027,0,32.933c0,0,14.823,5.249,26.443,5.223
			C204.022,153.775,230.195,137.297,223.535,111.311z"/>
	</g>
	<g>
		<path fill="#3C3127" d="M98.979,116.787c0.272,0.172,0.568-0.209,1.016-0.659c1.933-1.94,6.296-3,12.313,1.975
			c0,0-6.876-11.995-12.752-2.762C99.067,116.108,98.655,116.582,98.979,116.787z"/>
	</g>
	<g>
		
			<path fill="#22313B" stroke="#231F20" stroke-width="2" stroke-linecap="round" stroke-linejoin="round" stroke-miterlimit="10" d="
			M89.397,244.423c-3.354-3.018-3.689,2.251-3.689,2.251l-1.341,12.168H78.33c0,0,2.348-10.396,3.019-14.42
			c0.67-4.024-0.335-5.701-2.683-6.707c-2.348-1.006-11.737,0-11.737,0s-27.499,3.353-36.888,4.695
			c-9.39,1.341-9.39,4.264-9.39,4.264l-1.081,15.521l72.141,2.142l0,0C91.006,242,89.397,244.423,89.397,244.423z"/>
		
			<path fill="#145482" stroke="#231F20" stroke-width="2" stroke-linecap="round" stroke-linejoin="round" stroke-miterlimit="10" d="
			M94.427,248.75c0,0-1.169-3.322,2.098-3.657s0.585-4.024-4.781-7.713s-10.73-9.726-26.157-8.384s-41.075,6.372-41.075,6.372
			s-7.723,3.498-3.862,11.306c0,0,0-2.922,9.39-4.264c9.39-1.342,36.888-4.695,36.888-4.695s9.39-1.006,11.737,0
			c2.348,1.006,3.353,2.683,2.683,6.707c-0.671,4.024-3.019,14.42-3.019,14.42h6.037l1.341-12.168c0,0,0.335-5.27,3.689-2.251
			c0,0,1.609-2.423,2.313,19.915l0,0l6.913,0.206L94.427,248.75z"/>
		
			<path fill="#E9DEC7" stroke="#231F20" stroke-width="2" stroke-linecap="round" stroke-linejoin="round" stroke-miterlimit="10" d="
			M46.137,281.359c4.695-0.299,24.816,2.97,24.816,2.97s10.785,2.537,16.564,5.492c6.229,3.185,11.332,6.277,11.332,6.277
			l9.563,4.271l-3.386-32.136l-16.301-9.389c0,0-15.09-5.03-26.828-7.378c-11.737-2.348-23.372-5.893-37.386,3.018
			C8.164,264.879,6.23,262.868,8.914,280.976c0.945,6.375,2.565,11.564,4.656,15.792c5.396-4.139,16.704-12.557,21.837-14.452
			C39.43,280.832,42.756,281.575,46.137,281.359z"/>
		
			<path fill="#AD2532" stroke="#231F20" stroke-width="2" stroke-linecap="round" stroke-linejoin="round" stroke-miterlimit="10" d="
			M98.849,296.098c0,0-5.104-3.092-11.332-6.277c-5.779-2.955-16.564-5.492-16.564-5.492s-20.121-3.269-24.816-2.97
			c-3.381,0.215-6.707-0.527-10.731,0.958c-5.133,1.895-16.441,10.313-21.837,14.452c3.85,7.785,9.322,12.264,15.298,14.525
			c5.683,2.151,62.207,1.54,62.207,1.54l17.839-7.714l-0.5-4.752L98.849,296.098z"/>
	</g>
	<g>
		<g>
			<g>
				<path fill="#CBBDAD" stroke="#231F20" stroke-width="2" stroke-miterlimit="10" d="M144.526,603.532
					c-6.852,2.127-16.229,1.729-16.229,1.729s-10.731,0.67-13.414,9.39s0,19.45,13.75,20.792
					c13.749,1.341,36.553-3.354,36.553-3.354l15.375-24.771c-7.68,3.89-14.704,7.333-14.704,7.333
					C154.139,618.257,147.574,609.602,144.526,603.532z"/>
				<path fill="#E2B487" stroke="#231F20" stroke-width="2" stroke-miterlimit="10" d="M173.233,559.319
					c0-1.006-25.75-64.051-25.75-64.051s0.998,47.284,4.319,59.691c3.322,12.407,3.424,40.913-2.16,45.942
					c-1.276,1.15-3.087,2-5.116,2.63c3.048,6.069,9.612,14.725,21.33,11.119c0,0,7.024-3.443,14.704-7.333l2.733-4.403
					C183.294,602.915,173.233,560.325,173.233,559.319z"/>
			</g>
			<g>
				<path fill="#E3B283" stroke="#231F20" stroke-width="2" stroke-miterlimit="10" d="M165.979,641.572
					c0.295,0.081,0.58,0.164,0.884,0.242c13.266,3.382,25.92-5.339,30.934-9.424c-0.865-4.558-1.697-8.554-1.912-10.026
					c-0.488-3.353-2.193-27.834-1.523-36.217c0.67-8.384,0.769-33.809,0.336-46.949c-0.452-13.733-4.024-33.869-9.055-47.284
					c-5.03-13.414-3.354-18.108-4.359-22.467c-1.007-4.359,1.342-38.565,1.342-38.565s-59.357-33.87-51.644,14.085
					s7.042,31.857,13.079,55.667c6.036,23.81,7.744,24.673,13.749,52.13c8.267,37.8,6.036,59.541,4.024,64.57
					c-1.093,2.731-4.111,7.189-10.903,11.527c1.532,0.207,3.77,0.706,6.544,1.887C161.055,632.272,166.662,636.782,165.979,641.572z
					"/>
				<path fill="#CBBDAD" stroke="#231F20" stroke-width="2" stroke-miterlimit="10" d="M197.796,632.391
					c-5.014,4.085-17.668,12.806-30.934,9.424c-0.304-0.078-0.589-0.161-0.884-0.242c-0.188,1.309-0.84,2.637-2.135,3.932
					c-6.036,6.036-9.022-3.23-15.221-6.708c-3.563-1.998-6.97-3.469-9.228-4.36c-4.17,1.527-9.047,2.91-14.787,4.025
					c-24.145,4.695-10.99,22.451-10.06,23.475c1.951,2.147,11.737,14.084,31.949,11.386c19.922-2.661,22.712-6.02,37.803-8.368
					c15.091-2.348,15.762-10.061,15.762-16.432C200.062,644.948,198.901,638.211,197.796,632.391z"/>
				<path fill="#CBBDAD" stroke="#231F20" stroke-width="2" stroke-miterlimit="10" d="M157.473,630.748
					c-2.774-1.181-5.012-1.68-6.544-1.887c-1.214,0.776-2.535,1.549-4.003,2.307c-2.197,1.135-4.707,2.232-7.53,3.268
					c2.258,0.892,5.664,2.362,9.228,4.36c6.198,3.478,9.185,12.744,15.221,6.708c1.295-1.295,1.947-2.623,2.135-3.932
					C166.662,636.782,161.055,632.272,157.473,630.748z"/>
			</g>
			<path fill="#CBBDAD" stroke="#231F20" stroke-width="2" stroke-miterlimit="10" d="M142.382,602.244c0,0,4.516-3.811,6.241-0.562
				c1.01,1.902-1.968,5.184-3.12,6.598c-1.341,1.645-2.84,6.036-6.837,5.03S136.682,606.939,142.382,602.244z"/>
		</g>
		<path fill="#4E4F49" stroke="#231F20" stroke-width="2" stroke-linecap="round" stroke-miterlimit="10" d="M199.726,357.435
			c0,0,5.031,5.701,5.031,25.822c0,21.463-3.709,24.934-8.049,31.522c-1.019,1.548-0.828,3.139-0.671,7.378
			c0.335,9.054,2.434,12.529-4.023,17.438c-8.384,6.372-37.895,18.108-64.467,11.464c0,0-12.552-4.865-14.34-5.428
			c-2.702-0.849-5.403-0.786-6.806-9.055c-1.054-6.212-2.374-11.24-3.925-19.114c-2.871-14.569-3.626-12.773-3.626-67.068
			C98.849,296.098,199.726,357.435,199.726,357.435z"/>
	</g>
	<g>
		
			<path fill="#E8AE1F" stroke="#231F20" stroke-width="2" stroke-linecap="round" stroke-linejoin="round" stroke-miterlimit="10" d="
			M192.684,210.553c0,0-1.007-11.737-11.066-9.054c-10.061,2.683-28.223,3.353-42.951,18.444c0,0-5.675,2.012-8.021,0
			c0,0-15.762,13.415-24.145,35.882s-10.73,39.905-18.444,86.519c0,0-4.36,8.385,11.737,18.445
			c16.097,10.06,23.421,15.424,38.874,15.76c15.453,0.336,33.226-11.065,42.951-16.767c9.725-5.701,18.108-2.348,18.108-2.348
			s8.048-8.719,7.713-14.755s-4.695-14.755-4.695-27.834c0-13.078,3.923-25.957,3.593-44.621c-0.3-16.929-4.469-27.385-9.964-39.886
			C193.015,222.699,192.586,214.352,192.684,210.553z"/>
		
			<path fill="#E4B281" stroke="#000000" stroke-width="2" stroke-linecap="round" stroke-linejoin="round" stroke-miterlimit="10" d="
			M130.31,298.749l-1.875,10.454c0,0,0.927,5.44-11.534,2.625c-11.875-2.684-26.584-6.536-35.553-11.401
			c-12.757-6.922-17.773-4.024-26.492-1.678c-8.719,2.348-23.139,1.006-23.391,5.029c-0.316,5.061,10.963,6.527,15.659,4.851
			c0,0,0.689,2.267-4.34,4.074c-5.03,1.808-11.737-0.539-16.097-2.217c-4.36-1.677-1.96,5.365,5.365,9.055
			c8.731,4.397,13.75,11.066,38.9,3.688c0,0,6.301-2.249,16.564,4.241c10.264,6.49,36.755,18.562,46.481,18.897
			s21.798,5.366,33.199-13.749c11.401-19.114,3.019-25.486,3.019-25.486L130.31,298.749z"/>
		
			<path fill="#E8AE1F" stroke="#231F20" stroke-width="2" stroke-linecap="round" stroke-linejoin="round" stroke-miterlimit="10" d="
			M126.285,258.843c0,0,1.676,8.719-6.707,26.157c-8.384,17.438,5.03,22.134,11.402,25.486c6.372,3.354,29.176,14.421,38.9,12.073
			c9.725-2.349,14.756-3.689,17.104-18.445c2.347-14.755,1.005-34.875-2.349-43.259"/>
	</g>
	<path fill="none" stroke="#231F20" stroke-width="2" stroke-linecap="round" stroke-linejoin="round" stroke-miterlimit="10" d="
		M37.754,258.843c0,0,1.006,26.378,5.03,34.82"/>
	<g>
		
			<ellipse fill="#4E4F49" stroke="#231F20" stroke-width="2" stroke-linecap="round" stroke-linejoin="round" stroke-miterlimit="10" cx="60.1" cy="265.888" rx="3.018" ry="6.036"/>
		
			<ellipse transform="matrix(0.992 -0.1262 0.1262 0.992 -33.9054 5.2539)" fill="#4E4F49" stroke="#231F20" stroke-width="2" stroke-linecap="round" stroke-linejoin="round" stroke-miterlimit="10" cx="24.513" cy="270.218" rx="2.637" ry="5.274"/>
	</g>
</g>
<g id="Layer_2">
	<g>
		
			<path fill="#3C3127" stroke="#000000" stroke-width="2" stroke-linecap="round" stroke-linejoin="round" stroke-miterlimit="10" d="
			M192.36,112.115c0.119-0.271,0.229-0.547,0.323-0.826C193.166,109.843,192.824,110.568,192.36,112.115z"/>
		
			<path fill="#3C3127" stroke="#000000" stroke-width="2" stroke-linecap="round" stroke-linejoin="round" stroke-miterlimit="10" d="
			M260.759,68.7c0,0-17.772,6.707-30.517-3.018c-12.743-9.725-19.45-8.383-23.475-6.707s18.779-19.877,43.26-13.125
			c0,0-31.188-16.386-58.351,7.759c0,0,6.708-28.84-17.438-46.278c0,0,11.737,23.477,2.013,44.602c0,0-9.391-6.707-26.828-6.036
			c-17.438,0.67-26.828,8.719-34.876,12.743c-8.048,4.024-25.486,11.402-32.864,23.474c-7.378,12.073-6.707,39.571,6.036,42.924
			c0.48,0.126,0.92,0.23,1.342,0.321c-0.027-0.058-7.703-16.44-2.012-28.826c-5.691,12.386,1.985,28.768,2.012,28.826
			c10.761,2.343,3.062-6.698,12.743-32.515c0,0,5.366,32.89,17.438,32.876c0,0-6.372-3.031-2.683-13.427
			c-3.689,10.396,2.683,13.427,2.683,13.427c12.073-0.013,2.638,0.013,7.355,0c4.717-0.013,10.753-14.097,14.777-22.146
			c0,0-4.412,15.426-1.703,19.45c2.708,4.024,3.709-3.819,7.645,1.161c0,0,1.436,1.856,5.124-1.832
			c3.689-3.688,4.024,2.381,5.03,3.37c1.006,0.99,6.706-0.352,14.085-15.107c0,0-3.018,12.408-0.67,13.079
			c2.347,0.67,2.682-3.689,5.365-4.695c2.683-1.006,3.354,2.348,10.731-0.335c0,0,3.771-2.906,5.377-6.552
			c0.464-1.547,0.806-2.272,0.323-0.826c-0.094,0.279-0.204,0.554-0.323,0.826c-0.826,2.757-2.04,8.135,0.323,8.564
			c3.688,0.671,10.06,0.671,15.762-13.414c0,0-3.019,12.073,0,12.408c3.018,0.335,6.372-5.03,8.719-11.066c0,0,3.354-4.36,0-15.762
			c3.354,11.401,0,15.762,0,15.762s1.006,12.743,5.365,11.737c4.359-1.006,3.689-3.688,3.689-3.688s14.084-6.707,4.359-28.504
			c0,0,12.742,5.03,13.413,26.492c0,0,12.073-19.45-9.725-38.565C234.267,76.078,251.033,81.443,260.759,68.7z"/>
	</g>
	<g>
		<linearGradient id="SVGID_1_" gradientUnits="userSpaceOnUse" x1="109.8813" y1="135.8018" x2="112.0281" y2="155.8011">
			<stop  offset="0" style="stop-color:#999999"/>
			<stop  offset="1" style="stop-color:#E9E7DC"/>
		</linearGradient>
		<path fill="url(#SVGID_1_)" d="M105.579,139.833c0,0,4.484,7.208,4.979,12.596c0,0,3.142,4.418,5.531-5.732
			c0,0-1.817-5.584-4.003-8.728c-1.032-1.485-3.114-3.703-5.068-3.325C103.644,135.294,105.579,139.833,105.579,139.833"/>
		<path fill="none" stroke="#000000" stroke-width="2" stroke-linecap="round" stroke-linejoin="round" stroke-miterlimit="10" d="
			M116.088,146.697c0,0-1.817-5.584-4.003-8.728c-1.032-1.485-3.114-3.703-5.068-3.325c-3.373,0.651-1.438,5.19-1.438,5.19"/>
		<path fill="none" stroke="#000000" stroke-width="2" stroke-linecap="round" stroke-linejoin="round" stroke-miterlimit="10" d="
			M106.415,140.649"/>
		<path stroke="#000000" stroke-width="2" stroke-linecap="round" stroke-linejoin="round" stroke-miterlimit="10" d="
			M112.267,151.952c0.067,0.44,0.154,1.55-0.66,1.55c-0.617,0-0.856-0.488-1.049-1.072c-0.446-1.353-0.48-2.62-1.928-5.732
			c-1.697-3.65-3.038-6.055-3.038-6.055c-0.21-0.671,0.061-0.749,0.432-0.888l0,0c0.371-0.139,3.376,2.763,4.534,5.987
			C111.916,149.528,112.267,151.952,112.267,151.952z"/>
	</g>
</g>
</svg>
