<?xml version="1.0" encoding="utf-8"?>
<!-- Generator: Adobe Illustrator 16.0.0, SVG Export Plug-In . SVG Version: 6.00 Build 0)  -->
<!DOCTYPE svg PUBLIC "-//W3C//DTD SVG 1.1//EN" "http://www.w3.org/Graphics/SVG/1.1/DTD/svg11.dtd">
<svg version="1.1" id="Layer_1" xmlns="http://www.w3.org/2000/svg" xmlns:xlink="http://www.w3.org/1999/xlink" x="0px" y="0px"
	 width="1280px" height="800px" viewBox="0 0 1280 800" enable-background="new 0 0 1280 800" xml:space="preserve">
<path fill="none" stroke="#2A0000" stroke-width="12" stroke-linecap="round" stroke-linejoin="round" stroke-miterlimit="10" d="
	M351.406,708.617c0,0,148.757-58.197,238.579-285.617C633.4,313.076,767.185,240.137,767.185,240.137"/>
<path fill="none" stroke="#2A0000" stroke-width="12" stroke-linecap="round" stroke-linejoin="round" stroke-miterlimit="10" d="
	M555.985,230c0,0,37.893,152.454,9.446,246.227"/>
<path fill="#330000" stroke="#330000" stroke-width="12" stroke-linecap="round" stroke-linejoin="round" stroke-miterlimit="10" d="
	M756.147,246.842c0,0-48.162-107.842,168.838-114.842C924.985,132,878.31,332.684,756.147,246.842z"/>
<path fill="#330000" stroke="#330000" stroke-width="12" stroke-linecap="round" stroke-linejoin="round" stroke-miterlimit="10" d="
	M677.719,306.705c0,0,109.876-33.705,160.571,110.295C838.29,417,680.452,458.411,677.719,306.705z"/>
<path fill="#330000" stroke="#330000" stroke-width="12" stroke-linecap="round" stroke-linejoin="round" stroke-miterlimit="10" d="
	M677.719,306.705c0,0-86.267-38.705,0-170.705C677.719,136,760.452,217.411,677.719,306.705z"/>
<path fill="#330000" stroke="#330000" stroke-width="12" stroke-linecap="round" stroke-linejoin="round" stroke-miterlimit="10" d="
	M563.901,268.196c0,0-120.916-0.196-37.916-172.196C525.985,96,656.817,190.393,563.901,268.196z"/>
<path fill="#330000" stroke="#330000" stroke-width="12" stroke-linecap="round" stroke-linejoin="round" stroke-miterlimit="10" d="
	M555.985,494.598c0,0,50-65.598,171,21.402C726.985,516,614.985,613.196,555.985,494.598z"/>
<path fill="#330000" stroke="#330000" stroke-width="12" stroke-linecap="round" stroke-linejoin="round" stroke-miterlimit="10" d="
	M575.085,354.484c0,0-53.1-56.113-152.1,4.887C422.985,359.371,521.185,441.598,575.085,354.484z"/>
</svg>
