<?xml version="1.0" encoding="utf-8"?>
<!-- Generator: Adobe Illustrator 16.0.0, SVG Export Plug-In . SVG Version: 6.00 Build 0)  -->
<!DOCTYPE svg PUBLIC "-//W3C//DTD SVG 1.1//EN" "http://www.w3.org/Graphics/SVG/1.1/DTD/svg11.dtd">
<svg version="1.1" id="Layer_1" xmlns="http://www.w3.org/2000/svg" xmlns:xlink="http://www.w3.org/1999/xlink" x="0px" y="0px"
	 width="665.169px" height="614.607px" viewBox="293.747 57.601 665.169 614.607"
	 enable-background="new 293.747 57.601 665.169 614.607" xml:space="preserve">
<path fill="none" stroke="#FFFFFF" stroke-width="12" stroke-linecap="round" stroke-linejoin="round" stroke-miterlimit="10" d="
	M948.719,68.848c0,0-155.004,38.594-273.313,252.583C618.222,424.861,476.172,480,476.172,480"/>
<path fill="none" stroke="#FFFFFF" stroke-width="12" stroke-linecap="round" stroke-linejoin="round" stroke-miterlimit="10" d="
	M684.318,517.199c0,0-17.983-156.061,22.28-245.398"/>
<path fill="#FFFFFF" stroke="#FFFFFF" stroke-width="12" stroke-linecap="round" stroke-linejoin="round" stroke-miterlimit="10" d="
	M487.98,474.77c0,0,33.901,113.138-182.198,92.188C305.782,566.957,377.865,373.937,487.98,474.77z"/>
<path fill="#FFFFFF" stroke="#FFFFFF" stroke-width="12" stroke-linecap="round" stroke-linejoin="round" stroke-miterlimit="10" d="
	M573.452,425.483c0,0-113.297,19.303-145.062-130.019C428.391,295.465,590.242,274.685,573.452,425.483z"/>
<path fill="#FFFFFF" stroke="#FFFFFF" stroke-width="12" stroke-linecap="round" stroke-linejoin="round" stroke-miterlimit="10" d="
	M573.452,425.483c0,0,80.576,49.473-21.942,169.289C551.51,594.772,479.928,503.402,573.452,425.483z"/>
<path fill="#FFFFFF" stroke="#FFFFFF" stroke-width="12" stroke-linecap="round" stroke-linejoin="round" stroke-miterlimit="10" d="
	M681.377,478.303c0,0,119.888,15.736,15.468,175.641C696.845,653.943,579.231,543.518,681.377,478.303z"/>
<path fill="#FFFFFF" stroke="#FFFFFF" stroke-width="12" stroke-linecap="round" stroke-linejoin="round" stroke-miterlimit="10" d="
	M718.327,254.796c0,0-58.017,58.627-166.831-43.204C551.497,211.592,675.061,129.598,718.327,254.796z"/>
<path fill="#FFFFFF" stroke="#FFFFFF" stroke-width="12" stroke-linecap="round" stroke-linejoin="round" stroke-miterlimit="10" d="
	M681.375,391.293c0,0,45.448,62.473,151.468,14.704C832.843,405.997,746.027,311.83,681.375,391.293z"/>
</svg>
