<?xml version="1.0" encoding="utf-8"?>
<!-- Generator: Adobe Illustrator 16.0.0, SVG Export Plug-In . SVG Version: 6.00 Build 0)  -->
<!DOCTYPE svg PUBLIC "-//W3C//DTD SVG 1.1//EN" "http://www.w3.org/Graphics/SVG/1.1/DTD/svg11.dtd">
<svg version="1.1" id="Layer_1" xmlns="http://www.w3.org/2000/svg" xmlns:xlink="http://www.w3.org/1999/xlink" x="0px" y="0px"
	 width="112.407px" height="112.406px" viewBox="0 0 112.407 112.406" enable-background="new 0 0 112.407 112.406"
	 xml:space="preserve">
<circle fill="#A3A3A3" cx="55.973" cy="56.203" r="52.857"/>
<g>
	<path fill="#FFFFFF" d="M28.5,64.783h-3.679v-8.004H16.38v8.004h-3.678v-19h3.678v7.809h8.441v-7.809H28.5V64.783z"/>
	<path fill="#FFFFFF" d="M44.478,59.012h-9.061c0.146,2.307,1.454,3.459,3.924,3.459c1.505,0,2.848-0.394,4.026-1.188v2.736
		c-1.256,0.733-2.87,1.099-4.84,1.099c-2.108,0-3.749-0.61-4.923-1.832c-1.174-1.224-1.762-2.932-1.762-5.126
		c0-2.15,0.63-3.898,1.891-5.246c1.261-1.348,2.837-2.021,4.73-2.021s3.369,0.581,4.427,1.743c1.059,1.163,1.588,2.759,1.588,4.79
		V59.012z M41.083,56.651c0-2.151-0.886-3.227-2.659-3.227c-0.74,0-1.392,0.293-1.955,0.878c-0.564,0.585-0.915,1.368-1.052,2.349
		H41.083z"/>
	<path fill="#FFFFFF" d="M47.15,64.783V44.711h3.588v20.072H47.15z"/>
	<path fill="#FFFFFF" d="M54.403,64.783V44.711h3.588v20.072H54.403z"/>
	<path fill="#FFFFFF" d="M60.882,58.083c0-2.219,0.654-3.972,1.962-5.259c1.308-1.286,3.08-1.931,5.317-1.931
		c2.16,0,3.864,0.631,5.118,1.892c1.251,1.261,1.878,2.949,1.878,5.065c0,2.203-0.648,3.966-1.943,5.287s-3.048,1.98-5.259,1.98
		c-2.168,0-3.89-0.634-5.163-1.903S60.882,60.234,60.882,58.083z M64.522,58.031c0,2.849,1.183,4.273,3.549,4.273
		c2.281,0,3.421-1.46,3.421-4.377c0-2.821-1.145-4.232-3.433-4.232c-1.119,0-1.988,0.386-2.607,1.155
		C64.833,55.621,64.522,56.681,64.522,58.031z"/>
	<path fill="#FFFFFF" d="M86.715,52.319c0-0.55,0.209-1,0.629-1.349c0.418-0.349,0.906-0.523,1.465-0.523
		c0.567,0,1.051,0.177,1.455,0.53c0.4,0.353,0.603,0.8,0.603,1.342c0,0.567-0.202,1.026-0.603,1.375
		c-0.404,0.35-0.904,0.523-1.505,0.523c-0.55,0-1.027-0.178-1.435-0.537C86.918,53.325,86.715,52.87,86.715,52.319z M86.715,62.004
		c0-0.551,0.207-1.002,0.622-1.356c0.414-0.352,0.905-0.527,1.472-0.527c0.567,0,1.051,0.176,1.455,0.527
		c0.4,0.354,0.603,0.806,0.603,1.356c0,0.56-0.202,1.012-0.603,1.361c-0.404,0.35-0.904,0.523-1.505,0.523
		c-0.565,0-1.048-0.181-1.446-0.542S86.715,62.537,86.715,62.004z"/>
	<path fill="#FFFFFF" d="M92.333,67.695c2.595-3.204,3.894-6.886,3.894-11.051c0-4.124-1.299-7.857-3.894-11.2h2.858
		c2.701,3.211,4.053,6.949,4.053,11.212c0,4.336-1.355,8.015-4.066,11.039H92.333z"/>
</g>
</svg>
