<?xml version="1.0" encoding="utf-8"?>
<!-- Generator: Adobe Illustrator 16.0.0, SVG Export Plug-In . SVG Version: 6.00 Build 0)  -->
<!DOCTYPE svg PUBLIC "-//W3C//DTD SVG 1.1//EN" "http://www.w3.org/Graphics/SVG/1.1/DTD/svg11.dtd">
<svg class="zees-logo" version="1.1" id="Layer_1" xmlns="http://www.w3.org/2000/svg" xmlns:xlink="http://www.w3.org/1999/xlink" x="0px" y="0px"
	 width="250px" height="131px" viewBox="0 0 250 131" enable-background="new 0 0 250 131" xml:space="preserve">
<image display="none" overflow="visible" width="1007" height="528" xlink:href="8F5E7EA9.png" transform="matrix(0.24 0 0 0.24 5 3)">
</image>
<path class="zees-1" fill="none" stroke="#FFFFFF" stroke-width="8" stroke-linecap="round" stroke-linejoin="round" stroke-miterlimit="10" d="
	M38.365,33.85c0.004-0.001,49.089-13.688,67.542-27.028c0,0-23.686,54.856-52.234,86.338c-33.004,36.395-62.54,11.778-35.822-0.683
	c10.229-4.771,22.023-4.685,44.171,3.172c24,8.514,56.207-5.183,70.265-16.422c16.477-13.173,14.077-34.72-8.893-17.032
	c-23.072,17.767-19.39,46.768-3.087,45.053c0,0,21.508-2.297,35.566-27.669c0,0,21.132,0.697,33.662-13.525
	c17.171-19.49-5.457-20.862-18.924-9.616c-8.064,6.735-13.957,16.359-14.738,25.141c-1.854,20.82,13.462,34.926,44.662-1.416"/>
<path class="zees-2" fill="none" stroke="#FFFFFF" stroke-width="8" stroke-linecap="round" stroke-linejoin="round" stroke-miterlimit="10" d="
	M233.792,50.335c0,0-6.971-1.64-13.827,2.016c-7.63,4.068-13.606,15.487-3.749,20.171c7.642,3.632,20.75-9.442,25.919,3.546
	c7.483,18.805-45.047,49.488-173.941,49.381"/>
</svg>
