<?xml version="1.0" encoding="utf-8"?>
<!-- Generator: Adobe Illustrator 16.0.0, SVG Export Plug-In . SVG Version: 6.00 Build 0)  -->
<!DOCTYPE svg PUBLIC "-//W3C//DTD SVG 1.1//EN" "http://www.w3.org/Graphics/SVG/1.1/DTD/svg11.dtd">
<svg version="1.1" id="Layer_1" xmlns="http://www.w3.org/2000/svg" xmlns:xlink="http://www.w3.org/1999/xlink" x="0px" y="0px"
	 width="228.441px" height="214.679px" viewBox="0 0 228.441 214.679" enable-background="new 0 0 228.441 214.679"
	 xml:space="preserve">
<polygon fill="none" stroke="#A1A3A6" stroke-miterlimit="10" points="59.85,183.507 27.787,84.828 111.729,23.84 195.672,84.828 
	163.609,183.507 "/>
<polygon fill="none" stroke="#A1A3A6" stroke-miterlimit="10" points="71.453,167.652 46.561,91.042 111.729,43.694 176.899,91.042 
	152.006,167.652 "/>
<polygon fill="none" stroke="#A1A3A6" stroke-miterlimit="10" points="82.198,153.117 63.947,96.946 111.729,62.23 159.512,96.946 
	141.261,153.117 "/>
<line fill="none" stroke="#A1A3A6" stroke-miterlimit="10" x1="111.73" y1="6.358" x2="111.73" y2="112.841"/>
<line fill="none" stroke="#A1A3A6" stroke-miterlimit="10" x1="10.458" y1="79.937" x2="111.73" y2="112.841"/>
<line fill="none" stroke="#A1A3A6" stroke-miterlimit="10" x1="49.14" y1="198.989" x2="111.73" y2="112.841"/>
<line fill="none" stroke="#A1A3A6" stroke-miterlimit="10" x1="174.319" y1="198.989" x2="111.73" y2="112.841"/>
<line fill="none" stroke="#A1A3A6" stroke-miterlimit="10" x1="213.002" y1="79.937" x2="111.73" y2="112.841"/>
<polygon fill="none" stroke="#939598" stroke-width="4" stroke-linejoin="round" stroke-miterlimit="10" points="48.958,199.27 
	10.162,79.871 111.729,6.078 213.297,79.871 174.501,199.27 "/>
<polygon fill="none" stroke="#939598" stroke-width="4" stroke-linejoin="round" stroke-miterlimit="10" points="48.958,199.27 
	10.162,79.871 111.729,6.078 213.297,79.871 174.501,199.27 "/>
<polygon opacity="0.3" fill="#CC6666" points="62.058,181.21 38.276,88.976 111.73,36.671 155.935,98.479 171.163,194.646 "/>
<polygon fill="none" stroke="#CC6666" stroke-width="4" stroke-linejoin="round" stroke-miterlimit="10" points="62.058,181.21 
	38.276,88.976 111.73,36.671 155.935,98.479 171.163,194.646 "/>
</svg>
