<?xml version="1.0" encoding="utf-8"?>
<!-- Generator: Adobe Illustrator 16.0.0, SVG Export Plug-In . SVG Version: 6.00 Build 0)  -->
<!DOCTYPE svg PUBLIC "-//W3C//DTD SVG 1.1//EN" "http://www.w3.org/Graphics/SVG/1.1/DTD/svg11.dtd">
<svg version="1.1" id="Layer_1" xmlns="http://www.w3.org/2000/svg" xmlns:xlink="http://www.w3.org/1999/xlink" x="0px" y="0px"
	 width="380px" height="820px" viewBox="0 0 380 820" enable-background="new 0 0 380 820" xml:space="preserve">
<linearGradient id="SVGID_1_" gradientUnits="userSpaceOnUse" x1="189.9995" y1="-11.5146" x2="189.9995" y2="450.9181">
	<stop  offset="0" style="stop-color:#3F81BC"/>
	<stop  offset="0.5054" style="stop-color:#8AAAFF"/>
	<stop  offset="1" style="stop-color:#FFFFFF"/>
</linearGradient>
<path fill="url(#SVGID_1_)" d="M380,331.4V0.26H0V331.4c56.271-17.261,121.053-25.915,190-25.915S323.729,314.14,380,331.4z"/>
<linearGradient id="SVGID_2_" gradientUnits="userSpaceOnUse" x1="190.0005" y1="902.9653" x2="190.0005" y2="284.9586">
	<stop  offset="0" style="stop-color:#2481B8"/>
	<stop  offset="0.1193" style="stop-color:#3586C1"/>
	<stop  offset="0.357" style="stop-color:#6394DA"/>
	<stop  offset="0.6774" style="stop-color:#A9A9FF"/>
	<stop  offset="0.738" style="stop-color:#AFAFFF"/>
	<stop  offset="0.8159" style="stop-color:#BFBFFF"/>
	<stop  offset="0.9032" style="stop-color:#D9D9FF"/>
	<stop  offset="0.9968" style="stop-color:#FEFEFF"/>
	<stop  offset="1" style="stop-color:#FFFFFF"/>
</linearGradient>
<path fill="url(#SVGID_2_)" d="M380,819.74V330.881c-56.271-17.261-121.053-25.915-190-25.915S56.271,313.62,0,330.881V819.74H380z"
	/>
<g>
	<circle fill="#FFFFFF" cx="190" cy="180.966" r="56.59"/>
	<circle fill="#E6E6E6" cx="207.434" cy="184.974" r="18.789"/>
	<circle fill="#E6E6E6" cx="163.831" cy="154.966" r="12.219"/>
	<circle fill="#E6E6E6" cx="223.03" cy="153.787" r="8.396"/>
	<circle fill="#E6E6E6" cx="194.015" cy="213.289" r="6.114"/>
</g>
<circle fill="#FFFFFF" cx="319.429" cy="152.034" r="1.751"/>
<circle fill="#FFFFFF" cx="331.262" cy="68.722" r="2.604"/>
<circle fill="#FFFFFF" cx="119.33" cy="195.849" r="1.751"/>
<circle fill="#FFFFFF" cx="317.677" cy="269.79" r="1.751"/>
<circle fill="#FFFFFF" cx="56.167" cy="272.394" r="2.604"/>
<circle fill="#FFFFFF" cx="182.269" cy="44.628" r="1.751"/>
<circle fill="#FFFFFF" cx="219.755" cy="82.943" r="2.604"/>
<circle fill="#FFFFFF" cx="42.856" cy="145.391" r="1.752"/>
<circle opacity="0.6" fill="#FFFFFF" cx="22.624" cy="157.57" r="2.604"/>
<circle opacity="0.6" fill="#FFFFFF" cx="253.463" cy="69.322" r="1.752"/>
<circle opacity="0.6" fill="#FFFFFF" cx="259.521" cy="250.533" r="1.752"/>
<circle opacity="0.6" fill="#FFFFFF" cx="330.706" cy="88.368" r="1.751"/>
<circle fill="#FFFFFF" cx="56.167" cy="66.118" r="2.604"/>
</svg>
