<?xml version="1.0" encoding="utf-8"?>
<!-- Generator: Adobe Illustrator 16.0.0, SVG Export Plug-In . SVG Version: 6.00 Build 0)  -->
<!DOCTYPE svg PUBLIC "-//W3C//DTD SVG 1.1//EN" "http://www.w3.org/Graphics/SVG/1.1/DTD/svg11.dtd">
<svg version="1.1" id="Layer_1" xmlns="http://www.w3.org/2000/svg" xmlns:xlink="http://www.w3.org/1999/xlink" x="0px" y="0px"
	 width="380px" height="820px" viewBox="0 0 380 820" enable-background="new 0 0 380 820" xml:space="preserve">
<linearGradient id="SVGID_1_" gradientUnits="userSpaceOnUse" x1="189.9995" y1="-11.7754" x2="189.9995" y2="450.6573">
	<stop  offset="0" style="stop-color:#FFFFF5"/>
	<stop  offset="0.6555" style="stop-color:#A9E9FF"/>
	<stop  offset="1" style="stop-color:#E9B5FF"/>
</linearGradient>
<path fill="url(#SVGID_1_)" d="M380,331.14V0H0v331.14c56.271-17.261,121.053-25.915,190-25.915S323.729,313.879,380,331.14z"/>
<circle opacity="0.4" fill="#FFFFFF" cx="224.857" cy="163.345" r="50.473"/>
<circle opacity="0.3" fill="#FFFFFF" cx="224.857" cy="163.345" r="65.448"/>
<circle fill="#FFE000" cx="224.857" cy="163.345" r="37.59"/>
<linearGradient id="SVGID_2_" gradientUnits="userSpaceOnUse" x1="190.0005" y1="903.2251" x2="190.0005" y2="285.2172">
	<stop  offset="0" style="stop-color:#FFFFFF"/>
	<stop  offset="0.1173" style="stop-color:#EEFAFF"/>
	<stop  offset="0.4142" style="stop-color:#C8EEFF"/>
	<stop  offset="0.5699" style="stop-color:#B9EAFF"/>
	<stop  offset="0.7098" style="stop-color:#A6D8FF"/>
	<stop  offset="0.8729" style="stop-color:#96C9FF"/>
	<stop  offset="1" style="stop-color:#90C4FF"/>
</linearGradient>
<path fill="url(#SVGID_2_)" d="M380,820V331.14c-56.271-17.261-121.053-25.915-190-25.915S56.271,313.879,0,331.14V820H380z"/>
<circle fill="#FFFFFF" cx="252.535" cy="208.813" r="43.448"/>
<circle fill="#FFFFFF" cx="171.771" cy="200.935" r="57.962"/>
<circle fill="#FFFFFF" cx="220.455" cy="233.669" r="33.187"/>
<circle fill="#FFFFFF" cx="108.872" cy="208.813" r="30.802"/>
</svg>
