<?xml version="1.0" encoding="utf-8"?>
<!-- Generator: Adobe Illustrator 16.0.0, SVG Export Plug-In . SVG Version: 6.00 Build 0)  -->
<!DOCTYPE svg PUBLIC "-//W3C//DTD SVG 1.1//EN" "http://www.w3.org/Graphics/SVG/1.1/DTD/svg11.dtd">
<svg version="1.1" id="Layer_1" xmlns="http://www.w3.org/2000/svg" xmlns:xlink="http://www.w3.org/1999/xlink" x="0px" y="0px"
	 width="380px" height="820px" viewBox="0 0 380 820" enable-background="new 0 0 380 820" xml:space="preserve">
<linearGradient id="SVGID_1_" gradientUnits="userSpaceOnUse" x1="189.9995" y1="-11.7749" x2="189.9995" y2="450.6578">
	<stop  offset="0.1559" style="stop-color:#4291C0"/>
	<stop  offset="0.7366" style="stop-color:#C4DEEF"/>
	<stop  offset="1" style="stop-color:#FFFFFF"/>
</linearGradient>
<path fill="url(#SVGID_1_)" d="M380,331.14V0H0v331.14c56.271-17.261,121.053-25.915,190-25.915S323.729,313.879,380,331.14z"/>
<linearGradient id="SVGID_2_" gradientUnits="userSpaceOnUse" x1="190.0005" y1="903.2251" x2="190.0005" y2="285.2178">
	<stop  offset="0.1452" style="stop-color:#3263B8"/>
	<stop  offset="0.3271" style="stop-color:#5A88C9"/>
	<stop  offset="0.7126" style="stop-color:#B9DFF0"/>
	<stop  offset="0.7925" style="stop-color:#BCE0F1"/>
	<stop  offset="0.8565" style="stop-color:#C6E5F3"/>
	<stop  offset="0.9151" style="stop-color:#D7EDF6"/>
	<stop  offset="0.97" style="stop-color:#EFF8FB"/>
	<stop  offset="1" style="stop-color:#FFFFFF"/>
</linearGradient>
<path fill="url(#SVGID_2_)" d="M380,820V331.14c-56.271-17.261-121.053-25.915-190-25.915S56.271,313.879,0,331.14V820H380z"/>
<path opacity="0.8" fill="#FFFFFF" d="M276.793,173.466c0.573-19.78-14.995-36.279-34.775-36.854
	c-8.969-0.26-17.256,2.807-23.697,8.072c-7.22-16.313-23.32-27.907-42.342-28.459c-22.354-0.648-41.561,14.161-47.378,34.745
	c-1.765-0.445-3.603-0.713-5.498-0.768c-14.022-0.407-29.066,15.291-29.055,32.431c0.008,12.148,9.855,35.136,44.918,31.105
	c3.126-0.359,6.082-1.094,8.722-2.438c6.912,5.749,15.974,8.93,25.646,8.197c7.807-0.591,14.833-3.645,20.394-8.333
	c1.232,1.209,2.62,2.255,4.127,3.11c4.306,3.14,9.564,5.066,15.294,5.232c9.509,0.276,18.022-4.334,23.138-11.555
	c1.199,0.157,2.42,0.254,3.656,0.291C259.722,208.815,276.22,193.246,276.793,173.466z"/>
<path opacity="0.9" fill="#FFFFFF" d="M266.175,185.596c-2.286,0.133-4.487,0.551-6.573,1.215
	c-2.257-9.453-11.02-16.221-21.062-15.634c-6.657,0.389-12.384,3.926-15.818,9.079c-5.034-2.565-10.791-3.874-16.839-3.521
	c-11.979,0.7-22.083,7.721-27.269,17.631c-0.922-0.067-1.858-0.081-2.806-0.026c-11.683,0.683-20.601,10.706-19.918,22.39
	c0.683,11.683,10.707,20.601,22.39,19.918c2.884-0.168,5.598-0.908,8.042-2.099c6.251,5.385,14.515,8.446,23.402,7.927
	c7.173-0.419,13.668-3.11,18.843-7.324c3.553,3.605,8.578,5.722,14.027,5.403c4.563-0.267,8.632-2.196,11.661-5.161
	c4.396,2.571,9.573,3.92,15.04,3.601c14.745-0.861,26-13.513,25.139-28.26C293.572,195.99,280.921,184.735,266.175,185.596z"/>
<circle opacity="0.4" fill="#FFFFFF" cx="147.75" cy="240.122" r="1.751"/>
<circle opacity="0.6" fill="#FFFFFF" cx="38.947" cy="179.274" r="2.604"/>
<circle opacity="0.3" fill="#FFFFFF" cx="305.127" cy="65.609" r="1.752"/>
<circle opacity="0.6" fill="#FFFFFF" cx="324.635" cy="266.593" r="1.751"/>
<circle opacity="0.4" fill="#FFFFFF" cx="113.523" cy="90.224" r="2.604"/>
<circle opacity="0.4" fill="#FFFFFF" cx="322.883" cy="82.414" r="2.604"/>
</svg>
