<?xml version="1.0" encoding="utf-8"?>
<!-- Generator: Adobe Illustrator 16.0.0, SVG Export Plug-In . SVG Version: 6.00 Build 0)  -->
<!DOCTYPE svg PUBLIC "-//W3C//DTD SVG 1.1//EN" "http://www.w3.org/Graphics/SVG/1.1/DTD/svg11.dtd">
<svg version="1.1" id="Layer_1" xmlns="http://www.w3.org/2000/svg" xmlns:xlink="http://www.w3.org/1999/xlink" x="0px" y="0px"
	 width="380px" height="820px" viewBox="0 0 380 820" enable-background="new 0 0 380 820" xml:space="preserve">
<linearGradient id="SVGID_1_" gradientUnits="userSpaceOnUse" x1="189.9995" y1="-11.7749" x2="189.9995" y2="450.6578">
	<stop  offset="0" style="stop-color:#A7AECB"/>
	<stop  offset="0.0983" style="stop-color:#B9C5DF"/>
	<stop  offset="0.2138" style="stop-color:#C8D9F1"/>
	<stop  offset="0.33" style="stop-color:#D1E5FB"/>
	<stop  offset="0.4466" style="stop-color:#D4E9FF"/>
	<stop  offset="1" style="stop-color:#FFFFFF"/>
</linearGradient>
<path fill="url(#SVGID_1_)" d="M380,331.14V0H0v331.14c56.271-17.261,121.053-25.915,190-25.915S323.729,313.879,380,331.14z"/>
<path opacity="0.6" fill="#FFFFFF" d="M189.985,135.088c-3.547-13.457-16.917-22.118-30.833-19.569
	c-7.696,1.41-14.021,5.968-17.893,12.102c-8.533-3.987-18.337-5.466-28.308-3.64c-17.649,3.232-31.169,15.941-36.284,31.913
	c-3.107-0.666-6.395-0.749-9.713-0.141c-13.559,2.483-22.54,15.49-20.057,29.048c2.484,13.561,15.492,22.54,29.051,20.056
	c3.65-0.668,6.964-2.106,9.813-4.104c10.524,12.249,27.083,18.749,44.114,15.629c12.417-2.274,22.779-9.245,29.622-18.733
	c7.425,5.146,16.813,7.454,26.403,5.698c19.125-3.503,31.789-21.848,28.286-40.975C211.745,149.038,202.09,138.853,189.985,135.088z
	"/>
<path opacity="0.6" fill="#FFFFFF" d="M356.331,29.561c-1.066-8.747-8.708-15.33-17.656-14.929
	c-4.948,0.222-9.308,2.536-12.265,6.05c-5.009-3.236-11.03-5.007-17.442-4.721c-11.348,0.508-20.923,7.316-25.505,16.894
	c-1.893-0.685-3.948-1.02-6.08-0.925c-8.72,0.391-15.473,7.775-15.083,16.494c0.391,8.719,7.777,15.471,16.496,15.081
	c2.347-0.104,4.549-0.721,6.509-1.729c5.546,8.589,15.373,14.091,26.324,13.601c7.984-0.357,15.084-3.837,20.193-9.2
	c4.214,3.867,9.904,6.123,16.07,5.847c12.298-0.551,21.82-10.968,21.27-23.267C368.779,40.183,363.6,32.964,356.331,29.561z"/>
<linearGradient id="SVGID_2_" gradientUnits="userSpaceOnUse" x1="190.0005" y1="903.2251" x2="190.0005" y2="285.2178">
	<stop  offset="0" style="stop-color:#FFFFFF"/>
	<stop  offset="0.0752" style="stop-color:#F0F6FB"/>
	<stop  offset="0.2338" style="stop-color:#D6E6F5"/>
	<stop  offset="0.3758" style="stop-color:#C6DCF1"/>
	<stop  offset="0.4863" style="stop-color:#C0D9F0"/>
	<stop  offset="0.6349" style="stop-color:#BBCFE6"/>
	<stop  offset="0.8871" style="stop-color:#ACB4CB"/>
	<stop  offset="1" style="stop-color:#A4A6BD"/>
</linearGradient>
<path fill="url(#SVGID_2_)" d="M380,820V331.14c-56.271-17.261-121.053-25.915-190-25.915S56.271,313.879,0,331.14V820H380z"/>
<circle fill="#FFFFFF" cx="152.446" cy="136.871" r="43.448"/>
<circle fill="#FFFFFF" cx="71.681" cy="128.993" r="57.962"/>
<circle fill="#FFFFFF" cx="120.366" cy="161.728" r="33.187"/>
<circle fill="#FFFFFF" cx="8.783" cy="144.875" r="30.802"/>
<path opacity="0.4" fill="#FFFFFF" d="M389.28,178.543c-9.891,0-18.925,3.644-25.854,9.651
	c-8.477-17.745-26.588-30.006-47.565-30.006c-24.651,0-45.343,16.932-51.095,39.798c-1.959-0.434-3.993-0.67-6.083-0.67
	c-15.464,0-28,12.536-28,28s12.536,28,28,28c7.015,0,13.42-2.584,18.333-6.846c9.632,10.507,23.467,17.097,38.845,17.097
	c7.319,0,14.289-1.495,20.624-4.192c5.526,6.96,14.055,11.428,23.633,11.428c10.485,0,19.719-5.352,25.125-13.472
	c1.327,0.135,2.674,0.204,4.038,0.204c21.813,0,39.495-17.683,39.495-39.496S411.094,178.543,389.28,178.543z"/>
<circle fill="#FFFFFF" cx="372.297" cy="246.929" r="32.433"/>
<circle fill="#FFFFFF" cx="299.936" cy="239.433" r="39.928"/>
<circle fill="#FFFFFF" cx="339.865" cy="219.869" r="24.782"/>
<circle fill="#FFFFFF" cx="339.864" cy="257.291" r="22.07"/>
<circle fill="#FFFFFF" cx="262.284" cy="244.386" r="25.696"/>
</svg>
