<?xml version="1.0" encoding="utf-8"?>
<!-- Generator: Adobe Illustrator 16.0.0, SVG Export Plug-In . SVG Version: 6.00 Build 0)  -->
<!DOCTYPE svg PUBLIC "-//W3C//DTD SVG 1.1//EN" "http://www.w3.org/Graphics/SVG/1.1/DTD/svg11.dtd">
<svg version="1.1" id="Layer_1" xmlns="http://www.w3.org/2000/svg" xmlns:xlink="http://www.w3.org/1999/xlink" x="0px" y="0px"
	 width="380px" height="820px" viewBox="0 0 380 820" enable-background="new 0 0 380 820" xml:space="preserve">
<linearGradient id="SVGID_1_" gradientUnits="userSpaceOnUse" x1="189.9995" y1="-11.7749" x2="189.9995" y2="450.6578">
	<stop  offset="0" style="stop-color:#686D9A"/>
	<stop  offset="0.0557" style="stop-color:#757AA4"/>
	<stop  offset="0.1955" style="stop-color:#9195BA"/>
	<stop  offset="0.3362" style="stop-color:#A5A8CA"/>
	<stop  offset="0.4771" style="stop-color:#B1B4D3"/>
	<stop  offset="0.6187" style="stop-color:#B5B8D6"/>
	<stop  offset="1" style="stop-color:#FFFFFF"/>
</linearGradient>
<path fill="url(#SVGID_1_)" d="M380,331.14V0H0v331.14c56.271-17.261,121.053-25.915,190-25.915S323.729,313.879,380,331.14z"/>
<path opacity="0.6" fill="#F2F2F2" d="M356.331,29.561c-1.066-8.747-8.708-15.33-17.656-14.929
	c-4.948,0.222-9.308,2.536-12.265,6.05c-5.009-3.236-11.03-5.007-17.442-4.721c-11.348,0.508-20.923,7.316-25.505,16.894
	c-1.893-0.685-3.948-1.02-6.08-0.925c-8.72,0.391-15.473,7.775-15.083,16.494c0.391,8.719,7.777,15.471,16.496,15.081
	c2.347-0.104,4.549-0.721,6.509-1.729c5.546,8.589,15.373,14.091,26.324,13.601c7.984-0.357,15.084-3.837,20.193-9.2
	c4.214,3.867,9.904,6.123,16.07,5.847c12.298-0.551,21.82-10.968,21.27-23.267C368.779,40.183,363.6,32.964,356.331,29.561z"/>
<linearGradient id="SVGID_2_" gradientUnits="userSpaceOnUse" x1="190.0005" y1="903.2251" x2="190.0005" y2="285.2178">
	<stop  offset="0" style="stop-color:#7F7C8D"/>
	<stop  offset="0.2853" style="stop-color:#989FB3"/>
	<stop  offset="0.7019" style="stop-color:#C0D9F0"/>
	<stop  offset="0.7696" style="stop-color:#C6DCF1"/>
	<stop  offset="0.8567" style="stop-color:#D6E6F5"/>
	<stop  offset="0.9539" style="stop-color:#F0F6FB"/>
	<stop  offset="1" style="stop-color:#FFFFFF"/>
</linearGradient>
<path fill="url(#SVGID_2_)" d="M380,820V331.14c-56.271-17.261-121.053-25.915-190-25.915S56.271,313.879,0,331.14V820H380z"/>
<path opacity="0.8" fill="#FFFFFF" d="M152.447,93.423c-10.88,0-20.818,4.008-28.44,10.617
	c-9.326-19.521-29.249-33.008-52.326-33.008c-27.118,0-49.88,18.625-56.207,43.78c-2.155-0.478-4.393-0.737-6.691-0.737
	c-17.011,0-30.802,13.79-30.802,30.802s13.791,30.802,30.802,30.802c7.715,0,14.763-2.843,20.167-7.531
	c10.596,11.558,25.815,18.808,42.731,18.808c8.052,0,15.719-1.645,22.688-4.612c6.079,7.656,15.461,12.571,25.997,12.571
	c11.536,0,21.692-5.888,27.639-14.819c1.46,0.148,2.942,0.224,4.442,0.224c23.996,0,43.448-19.452,43.448-43.448
	S176.443,93.423,152.447,93.423z"/>
<path opacity="0.4" fill="#6F88B0" d="M389.28,178.543c-9.891,0-18.925,3.644-25.854,9.651
	c-8.477-17.745-26.588-30.006-47.565-30.006c-24.651,0-45.343,16.932-51.095,39.798c-1.959-0.434-3.993-0.67-6.083-0.67
	c-15.464,0-28,12.536-28,28s12.536,28,28,28c7.015,0,13.42-2.584,18.333-6.846c9.632,10.507,23.467,17.097,38.845,17.097
	c7.319,0,14.289-1.495,20.624-4.192c5.526,6.96,14.055,11.428,23.633,11.428c10.485,0,19.719-5.352,25.125-13.472
	c1.327,0.135,2.674,0.204,4.038,0.204c21.813,0,39.495-17.683,39.495-39.496S411.094,178.543,389.28,178.543z"/>
<path opacity="0.8" fill="#FFFFFF" d="M372.298,214.496c-2.776,0-5.471,0.35-8.043,1.006c-2.063-11.604-12.193-20.416-24.391-20.416
	c-8.088,0-15.27,3.876-19.793,9.871c-5.912-3.461-12.789-5.453-20.135-5.453c-14.551,0-27.279,7.786-34.258,19.416
	c-1.111-0.146-2.243-0.23-3.395-0.23c-14.191,0-25.696,11.504-25.696,25.696c0,14.191,11.505,25.696,25.696,25.696
	c3.503,0,6.841-0.704,9.883-1.973c7.188,6.961,16.975,11.252,27.77,11.252c8.712,0,16.766-2.798,23.329-7.533
	c4.045,4.615,9.979,7.533,16.599,7.533c5.543,0,10.604-2.048,14.481-5.422c5.141,3.423,11.312,5.422,17.952,5.422
	c17.912,0,32.432-14.521,32.432-32.433C404.729,229.016,390.21,214.496,372.298,214.496z"/>
<path opacity="0.6" fill="#6F88B0" d="M189.985,135.088c-3.547-13.457-16.917-22.118-30.833-19.569
	c-7.696,1.41-14.021,5.968-17.893,12.102c-8.533-3.987-18.337-5.466-28.308-3.64c-17.649,3.232-31.169,15.941-36.284,31.913
	c-3.107-0.666-6.395-0.749-9.713-0.141c-13.559,2.483-22.54,15.49-20.057,29.048c2.484,13.561,15.492,22.54,29.051,20.056
	c3.65-0.668,6.964-2.106,9.813-4.104c10.524,12.249,27.083,18.749,44.114,15.629c12.417-2.274,22.779-9.245,29.622-18.733
	c7.425,5.146,16.813,7.454,26.403,5.698c19.125-3.503,31.789-21.848,28.286-40.975C211.745,149.038,202.09,138.853,189.985,135.088z
	"/>
</svg>
