<?xml version="1.0" encoding="utf-8"?>
<!-- Generator: Adobe Illustrator 16.0.0, SVG Export Plug-In . SVG Version: 6.00 Build 0)  -->
<!DOCTYPE svg PUBLIC "-//W3C//DTD SVG 1.1//EN" "http://www.w3.org/Graphics/SVG/1.1/DTD/svg11.dtd">
<svg version="1.1" id="Layer_1" xmlns="http://www.w3.org/2000/svg" xmlns:xlink="http://www.w3.org/1999/xlink" x="0px" y="0px"
	 width="380px" height="820px" viewBox="0 0 380 820" enable-background="new 0 0 380 820" xml:space="preserve">
<linearGradient id="SVGID_1_" gradientUnits="userSpaceOnUse" x1="189.9995" y1="-11.7749" x2="189.9995" y2="450.6578">
	<stop  offset="0" style="stop-color:#595968"/>
	<stop  offset="0.371" style="stop-color:#85929D"/>
	<stop  offset="1" style="stop-color:#FFFFFF"/>
</linearGradient>
<path fill="url(#SVGID_1_)" d="M380,331.14V0H0v331.14c56.271-17.261,121.053-25.915,190-25.915S323.729,313.879,380,331.14z"/>
<linearGradient id="SVGID_2_" gradientUnits="userSpaceOnUse" x1="190.0005" y1="903.2251" x2="190.0005" y2="285.2178">
	<stop  offset="0.0591" style="stop-color:#6A6D74"/>
	<stop  offset="0.4913" style="stop-color:#96ADB9"/>
	<stop  offset="0.6989" style="stop-color:#ACCDDC"/>
	<stop  offset="1" style="stop-color:#FFFFFF"/>
</linearGradient>
<path fill="url(#SVGID_2_)" d="M380,820V331.14c-56.271-17.261-121.053-25.915-190-25.915S56.271,313.879,0,331.14V820H380z"/>
<line opacity="0.7" fill="none" stroke="#FFFFFF" stroke-width="5" stroke-linecap="round" stroke-miterlimit="10" x1="239.6" y1="187.164" x2="183.295" y2="274.612"/>
<line opacity="0.7" fill="none" stroke="#FFFFFF" stroke-width="5" stroke-linecap="round" stroke-miterlimit="10" x1="198.266" y1="136.295" x2="183.533" y2="159.177"/>
<line opacity="0.9" fill="none" stroke="#FFFFFF" stroke-width="5" stroke-linecap="round" stroke-miterlimit="10" x1="240.989" y1="69.94" x2="215.909" y2="108.893"/>
<line opacity="0.7" fill="none" stroke="#FFFFFF" stroke-width="5" stroke-linecap="round" stroke-miterlimit="10" x1="258.138" y1="43.307" x2="248.119" y2="58.865"/>
<line opacity="0.9" fill="none" stroke="#FFFFFF" stroke-width="5" stroke-linecap="round" stroke-miterlimit="10" x1="347.764" y1="129.931" x2="296.813" y2="209.064"/>
<line opacity="0.7" fill="none" stroke="#FFFFFF" stroke-width="5" stroke-linecap="round" stroke-miterlimit="10" x1="364.95" y1="103.238" x2="353.723" y2="120.676"/>
<line opacity="0.7" fill="none" stroke="#FFFFFF" stroke-width="5" stroke-linecap="round" stroke-miterlimit="10" x1="257.146" y1="158.131" x2="245.919" y2="175.568"/>
<line opacity="0.9" fill="none" stroke="#FFFFFF" stroke-width="5" stroke-linecap="round" stroke-miterlimit="10" x1="296.813" y1="180.218" x2="246.742" y2="257.985"/>
<line opacity="0.7" fill="none" stroke="#FFFFFF" stroke-width="5" stroke-linecap="round" stroke-miterlimit="10" x1="325.814" y1="135.174" x2="304.492" y2="168.291"/>
<line opacity="0.9" fill="none" stroke="#FFFFFF" stroke-width="5" stroke-linecap="round" stroke-miterlimit="10" x1="157.157" y1="135.174" x2="90.01" y2="239.46"/>
<line opacity="0.7" fill="none" stroke="#FFFFFF" stroke-width="5" stroke-linecap="round" stroke-miterlimit="10" x1="234.732" y1="17.027" x2="166.595" y2="122.853"/>
<line opacity="0.2" fill="none" stroke="#29435B" stroke-width="4" stroke-linecap="round" stroke-miterlimit="10" x1="75.709" y1="52.156" x2="10.933" y2="152.51"/>
<line opacity="0.2" fill="none" stroke="#29435B" stroke-width="4" stroke-linecap="round" stroke-miterlimit="10" x1="193.111" y1="-11.291" x2="128.336" y2="89.063"/>
<line opacity="0.2" fill="none" stroke="#29435B" stroke-width="4" stroke-linecap="round" stroke-miterlimit="10" x1="155.242" y1="82.999" x2="90.466" y2="183.353"/>
<line opacity="0.2" fill="none" stroke="#29435B" stroke-width="4" stroke-linecap="round" stroke-miterlimit="10" x1="221.631" y1="75.757" x2="156.856" y2="176.111"/>
<line opacity="0.2" fill="none" stroke="#29435B" stroke-width="4" stroke-linecap="round" stroke-miterlimit="10" x1="347.662" y1="-4.065" x2="282.887" y2="96.289"/>
<line opacity="0.2" fill="none" stroke="#29435B" stroke-width="4" stroke-linecap="round" stroke-miterlimit="10" x1="203.267" y1="187.884" x2="163.323" y2="249.768"/>
<path opacity="0.3" fill="none" stroke="#3D5460" stroke-width="5" stroke-linecap="round" stroke-miterlimit="10" d="
	M424.33,332.631"/>
<path opacity="0.3" fill="none" stroke="#3D5460" stroke-width="5" stroke-linecap="round" stroke-miterlimit="10" d="
	M489.105,232.278"/>
<line opacity="0.2" fill="none" stroke="#29435B" stroke-width="4" stroke-linecap="round" stroke-miterlimit="10" x1="391.194" y1="159.708" x2="326.419" y2="260.062"/>
<line opacity="0.7" fill="none" stroke="#FFFFFF" stroke-width="5" stroke-linecap="round" stroke-miterlimit="10" x1="79.582" y1="108.894" x2="12.435" y2="213.18"/>
</svg>
